<?xml version="1.0" standalone="no"?><!DOCTYPE svg PUBLIC "-//W3C//DTD SVG 1.1//EN" "http://www.w3.org/Graphics/SVG/1.1/DTD/svg11.dtd"><svg t="1493085988025" class="icon" style="" viewBox="0 0 1024 1024" version="1.1" xmlns="http://www.w3.org/2000/svg" p-id="1887" xmlns:xlink="http://www.w3.org/1999/xlink" width="200" height="200"><defs><style type="text/css"></style></defs><path d="M192 832h256v64H192v-64z m320-384H192v64h320V448z m128 192V512l-192 192 192 192v-128h320v-128H640zM352 576H192v64h160V576zM192 768h160v-64H192v64z m576 64h64v128c-1.28 17.92-7.04 33.28-19.2 44.8-12.16 11.52-26.88 17.92-44.8 19.2H128c-35.2 0-64-28.8-64-64V256c0-35.2 28.8-64 64-64h192c0-71.04 56.96-128 128-128 71.04 0 128 56.96 128 128h192c35.2 0 64 28.8 64 64v320h-64V384H128v576h640v-128zM192 320h512c0-35.2-28.8-64-64-64H576c-35.2 0-64-28.8-64-64s-28.8-64-64-64-64 28.8-64 64-28.8 64-64 64H256c-35.2 0-64 28.8-64 64z" fill="" p-id="1888"></path></svg>